PathFileType	4	(X/Y/Z)	48_2_21_p1_0-442_filt_butterworth.trc
DataRate	CameraRate	NumFrames	NumMarkers	Units	OrigDataRate	OrigDataStartFrame	OrigNumFrames
57.0	57.0	5	27	m	57.0	331	442
Frame#	Time	RHip			RKnee			RAnkle			RBigToe			RSmallToe			RHeel			LHip			LKnee			LAnkle			LBigToe			LSmallToe			LHeel			Neck			Head			Nose			RShoulder			RElbow			RWrist			RThumb			RIndex			RPinky			LShoulder			LElbow			LWrist			LThumb			LIndex			LPinky			
		X1	Y1	Z1	X2	Y2	Z2	X3	Y3	Z3	X4	Y4	Z4	X5	Y5	Z5	X6	Y6	Z6	X7	Y7	Z7	X8	Y8	Z8	X9	Y9	Z9	X10	Y10	Z10	X11	Y11	Z11	X12	Y12	Z12	X13	Y13	Z13	X14	Y14	Z14	X15	Y15	Z15	X16	Y16	Z16	X17	Y17	Z17	X18	Y18	Z18	X19	Y19	Z19	X20	Y20	Z20	X21	Y21	Z21	X22	Y22	Z22	X23	Y23	Z23	X24	Y24	Z24	X25	Y25	Z25	X26	Y26	Z26	X27	Y27	Z27	
331	5.807017543859649	0.17579118716426465	0.3746803515011431	0.6345222982058363	0.17027534119220847	0.5258814933379573	1.0749931473648917	0.15536670763874189	0.6941680988313672	1.526465994444893	0.11504042021417338	0.5024038156585108	1.567864466467012	0.1851669955630299	0.49851609138537395	1.5585383129985364	0.1354731998010962	0.7745257279947556	1.5800903790036664	-0.03804097393368026	0.41122714534513477	0.6209166873815114	-0.04123304595559645	0.6139253408237006	1.082254491447753	-0.048019630285856596	0.6750130993490601	1.4722552666526207	-0.05664711616641459	0.47866913586997073	1.5220047612322138	-0.10744783213802905	0.5520388325448774	1.5356655374244412	-0.02809758102190007	0.7476937201891508	1.5598950525156399	0.128299918328259	0.44146199782635126	-0.02205415851074242	0.13881119686214158	0.3780427443639591	-0.264463275588313	0.12113527101869077	0.3419715871633843	-0.12422186547599764	0.2888275017976448	0.46487110937509757	0.062234837412251234	0.2866314059262262	0.23109114444148893	0.22816793642402858	0.2272939162093094	-0.010882739090246146	0.13452406691009186	0.19262747266953917	-0.15855250906219187	0.06529980974294915	0.19801810877519133	-0.18029712990608876	0.07152928664911956	0.1957098678082345	-0.1691208015255047	0.10212422449834425	-0.028017248906693326	0.49823812586912786	0.03767187239391887	-0.12418898372622093	0.3187136100321015	0.1794956747250545	-0.13425858276664798	0.0909900453538845	0.09692333567268056	-0.15412160918316256	-0.021239817755942015	0.04209697228075715	-0.16564200515448857	-0.040629601982117625	0.035992630914271316	-0.1740715658989913	-0.08762416163004076	0.0708565714354064
332	5.824561403508772	0.17513030986742883	0.3775309709641037	0.6334659917836349	0.17027061055177894	0.5257158407720695	1.0745363098814253	0.15550471766997023	0.6940721447534496	1.5265588890713926	0.11490026957811432	0.5030255796384715	1.5666555910059037	0.18533433834371757	0.4988996750414675	1.5584559842825567	0.1355172288128806	0.7745884518181132	1.5801034032183265	-0.038090364662960424	0.4110451998988701	0.6203693070450184	-0.041222722348043465	0.6139422246548829	1.0822437196082415	-0.04805680666685392	0.6750171662433215	1.472608919269236	-0.05622402985307914	0.4737992684527108	1.5173989823429488	-0.10616600035571404	0.5463271061040523	1.5321858890043742	-0.02808311045762124	0.7490465438596562	1.5609180353956795	0.12753603056730187	0.4415546308311055	-0.022718997282584787	0.13877616128678025	0.3780433487402157	-0.26448161457521735	0.1211277820741138	0.34204337579158567	-0.12445122263037647	0.2922875110374409	0.4695237223716771	0.06220959156690328	0.2818958854527861	0.24820465986147294	0.23095911326973365	0.22184477753274234	-0.0071221380798529264	0.146691915568664	0.18356806572694961	-0.1530135463635849	0.08077405774154633	0.19037624412292217	-0.17900732072083764	0.08665461836640484	0.18441556846646778	-0.16176306616619576	0.12158158605153843	-0.028316002582930336	0.4999111084443758	0.037506672336657394	-0.12183817689504842	0.3244644595094143	0.1891927185218108	-0.12611087649309746	0.08702143093224253	0.11317047416293433	-0.1497504670308659	-0.025540960109896236	0.06023937853624408	-0.1624906323843347	-0.04256265010097956	0.05505480790238036	-0.1628036879709383	-0.08756717898823255	0.08827506127051175
333	5.842105263157895	0.17432160721613463	0.3819906579463609	0.6330985149533436	0.17023570575530309	0.5256026643363212	1.0733011245509587	0.1558192762209533	0.6940021549768755	1.5267458945182895	0.1147781289907609	0.5027890574926396	1.5662408974082855	0.18538369156335097	0.4990580782008177	1.5584587364520317	0.13555720931893292	0.774653121826605	1.5801228553978037	-0.038168857114523856	0.4135133918047762	0.6205682135787512	-0.04122245380496849	0.6139629562330977	1.0822250205606272	-0.04814655251924552	0.6749862514174132	1.4736524190105413	-0.05600429639233985	0.46812847314001826	1.5141039957694853	-0.10514644475042242	0.541989884656028	1.5297489115988436	-0.02817232213587426	0.749425642073469	1.5615297045071013	0.1265633116051091	0.44123644308296606	-0.023981537033161048	0.13876538862054902	0.3780520236591384	-0.2644983593455713	0.12116445271361517	0.34217857714724853	-0.12423622283424154	0.2941848456823303	0.4727031447688739	0.06205853157046367	0.2785580590951451	0.2612273391154729	0.23431663591727436	0.2169808433671443	-0.0008350119336063709	0.15832660765117657	0.1750265735435713	-0.14208131841802574	0.09776210605647734	0.1827685770419803	-0.16902703253981943	0.10239297270114409	0.17615304105234608	-0.15890834446846355	0.1379071514720928	-0.028327907367668978	0.5002550623661631	0.0374371053676859	-0.11999792673115858	0.3290774001537589	0.19757293675740173	-0.11867186037266549	0.07971509176582414	0.1289251834373692	-0.14395387562126277	-0.03033988859592278	0.07526362496696258	-0.15706963186877496	-0.04794381250394186	0.06906325327627671	-0.1527202743380639	-0.08924816746265597	0.10663910606273001
334	5.859649122807017	0.17429363276743765	0.38664636961937715	0.6335432350570372	0.170063810848927	0.5252495736190037	1.071648492562381	0.15599262405643513	0.693997772751514	1.5268536471223593	0.1142357106087085	0.5015041434163342	1.5655027055389787	0.18480192729221553	0.49790993703970987	1.5583996216214797	0.13557711618755597	0.7746914830500663	1.5801883619049568	-0.03796355888261979	0.42063366665721424	0.6216963529559458	-0.04122217011652858	0.6139904879523563	1.0822253140277651	-0.04816879914398841	0.6748593842559135	1.4751251635793063	-0.05642755177563116	0.46560102214863386	1.5136483259498765	-0.10468751730942864	0.5401951389374514	1.5289226667683606	-0.02843556993961696	0.7481265036971412	1.5609371792272866	0.12587153767720577	0.44083976487314186	-0.025295927918454954	0.13876449603000426	0.3780837159703416	-0.26449628792002783	0.12108064050562205	0.34201733924554434	-0.12398799368846189	0.29459554908534624	0.47373336526843607	0.061914638790328366	0.27635803138332443	0.2658872750507758	0.24036979583447077	0.2114358004498666	0.006632866139651365	0.16928668073954492	0.16567256110423362	-0.1307015996442587	0.11467167314043213	0.17406656776922338	-0.15133921605785652	0.11720176220402655	0.17061238512610488	-0.15840076282422894	0.15154180262481304	-0.028262563196654406	0.5002237036385218	0.03743271024839996	-0.1179575029338363	0.3332667707407782	0.2039842003078306	-0.11239982110489016	0.07204943502587692	0.14165329889992373	-0.1330312900167184	-0.03436269845424997	0.08899616079162033	-0.1474496013465244	-0.05830011213783924	0.07963141665765737	-0.14643016075088228	-0.09187451149754046	0.12395902312462193
335	5.87719298245614	0.17590981288719443	0.3911666649897654	0.6344583530784039	0.16977817955926577	0.5246820413658677	1.0703831972858797	0.1560112571309922	0.694036168324618	1.5267704494961096	0.11292979630688621	0.4985033523248712	1.5636996262549858	0.18318166877510317	0.4944901471402662	1.5580569165925113	0.1355837003643988	0.7746822335354757	1.5803687134018518	-0.03704472783991023	0.4309101214077987	0.623732432160267	-0.041208707251198205	0.6140374762856111	1.0822619852328963	-0.04777170435698352	0.674663221442103	1.4763492395099718	-0.057367929174498344	0.4680778741048988	1.5155821095731739	-0.10467872374152395	0.5402266242645672	1.5288880113246521	-0.028784997747909918	0.7459507136938343	1.5588994603546356	0.12549960980415897	0.4403155768657993	-0.026032025682607297	0.13876707166597985	0.3781065518330855	-0.26447981095432993	0.12050783921846545	0.340741024083508	-0.12421194869882085	0.2943346439621386	0.47373301944122664	0.0620933697082767	0.2736184242987715	0.26521176183040657	0.250259639367641	0.2031217679122814	0.014029437827825408	0.1792491940036664	0.15616631246281396	-0.12269300412277478	0.12826681671878462	0.1635476378961816	-0.1349051894202234	0.13012754176922423	0.16337464907607274	-0.15470658145894167	0.16429100644317318	-0.02821730791655982	0.5001751059555161	0.03745546459423828	-0.11418303930958343	0.3363957987890853	0.20883395167642765	-0.1063868101012509	0.06751327628086502	0.15211658389491645	-0.11674517271389984	-0.03695940087512349	0.1044674837661021	-0.13380028301716046	-0.07049571977413566	0.09250821375881636	-0.13998606738565506	-0.09666827135432265	0.13969856534655734
